<svg width="103" height="78" viewBox="0 0 103 78" fill="none" xmlns="http://www.w3.org/2000/svg">
<path d="M23.3999 47.7429C23.3999 57.684 31.4588 65.7429 41.3999 65.7429L73.9873 65.7429C76.7488 65.7429 78.9873 63.5043 78.9873 60.7429L78.9873 21.2672C78.9873 15.7443 74.5102 11.2672 68.9873 11.2672L28.3999 11.2672C25.6385 11.2672 23.3999 13.5058 23.3999 16.2672L23.3999 47.7429Z" fill="#FFF1DA"/>
<path d="M68.3147 33.7526L36.0387 29.3477C34.9175 29.1875 33.7161 29.2676 32.5949 29.5079C30.8329 29.9083 30.5126 32.311 32.1144 33.192L48.0521 41.281L68.3147 33.7526V33.7526Z" fill="#0F6DA0"/>
<path d="M59.2648 54.5759C60.8129 54.5759 62.0679 53.3209 62.0679 51.7727C62.0679 50.2246 60.8129 48.9696 59.2648 48.9696C57.7167 48.9696 56.4617 50.2246 56.4617 51.7727C56.4617 53.3209 57.7167 54.5759 59.2648 54.5759Z" fill="#365E7D"/>
<path d="M89.0578 36.3155C90.6059 36.3155 91.8609 35.0605 91.8609 33.5124C91.8609 31.9642 90.6059 30.7092 89.0578 30.7092C87.5096 30.7092 86.2546 31.9642 86.2546 33.5124C86.2546 35.0605 87.5096 36.3155 89.0578 36.3155Z" fill="#365E7D"/>
<path d="M91.3002 19.4166C91.3002 19.4166 91.4604 22.7003 85.6939 24.3822C84.813 24.7025 85.8541 27.826 86.655 27.826C87.6161 27.826 98.5082 24.0618 98.348 20.2976C95.9454 19.2565 91.3002 19.4166 91.3002 19.4166Z" fill="#0F6DA0"/>
<path d="M10.8104 51.132C10.1697 50.5714 10.3299 49.4501 11.1307 49.0497C21.5424 44.1642 78.4057 17.7348 84.0921 15.0117C90.339 12.0484 94.9842 15.5724 96.586 16.9339C98.1878 18.2954 100.03 17.3343 101.151 19.0162C102.272 20.618 101.952 25.103 89.378 30.8694C75.8429 37.1164 47.8917 49.9307 42.2054 52.3333C36.7593 54.6559 19.9406 58.9007 10.8104 51.132V51.132Z" fill="#8BCAFF"/>
<path d="M70.1567 39.439C70.3969 39.1987 70.477 38.7983 70.3168 38.4779C69.7562 37.4368 68.0743 35.2743 64.15 35.2743C60.0654 35.2743 49.5737 41.5213 44.9285 44.1643C44.2077 44.5647 44.2077 45.5258 44.9285 46.0063C45.9697 46.5669 46.2901 47.9285 45.7294 48.9696L35.7984 66.2689C35.2377 67.3101 36.0386 68.5915 37.24 68.5915H38.2811C40.5236 68.5915 42.686 67.6304 44.2077 66.0286L70.1567 39.439ZM20.181 50.0108C18.3389 50.9718 16.0964 52.0931 14.9752 52.7338C14.7349 52.894 14.4946 53.1343 14.3344 53.4546L12.8928 58.8206C12.5725 60.2622 14.4145 61.1432 15.3756 60.0219L22.1031 51.2121C22.8239 50.171 21.7827 49.1298 20.181 50.0108V50.0108ZM23.4646 43.8439C23.2244 42.7227 18.2588 43.1231 14.2544 41.3611C8.96846 39.0385 6.00516 37.4368 3.4423 36.2354C2.08078 35.5947 0.799352 36.8761 1.76042 38.2377L10.5702 50.8117C10.8105 51.132 11.291 51.2121 11.6114 51.0519C11.6114 51.0519 19.5402 46.8873 23.4646 43.8439V43.8439ZM97.3069 17.3343C97.3069 17.3343 95.7852 19.4968 92.1011 21.4189C91.2202 21.8994 90.0989 21.499 89.6985 20.618C89.3781 19.8171 89.6184 18.9361 90.3392 18.4556C90.8998 18.0552 91.6206 17.5746 92.1011 17.2543C93.2224 16.2932 94.1835 15.1719 94.1835 15.1719C94.1835 15.1719 95.4649 15.9728 97.3069 17.3343Z" fill="#0F6DA0"/>
</svg>
