<svg width="92" height="79" viewBox="0 0 92 79" fill="none" xmlns="http://www.w3.org/2000/svg">
<path d="M32.2598 60.8571C32.2598 70.7982 40.3186 78.8571 50.2598 78.8571L87 78.8571C89.7615 78.8571 92 76.6185 92 73.8571L92 30.3117C92 24.7888 87.5229 20.3117 82 20.3117L37.2598 20.3117C34.4983 20.3117 32.2598 22.5502 32.2598 25.3117L32.2598 60.8571Z" fill="#FFF1DA"/>
<path d="M59.7402 33.2732V26.4671C59.7402 25.1329 58.6586 24.0513 57.3244 24.0513H54.7213C53.6804 24.0513 52.7569 23.3844 52.4297 22.3963C52.0653 21.2957 51.6225 20.2307 51.108 19.208C50.6395 18.2766 50.8188 17.1505 51.556 16.4132L53.3977 14.5715C54.3412 13.628 54.3412 12.0984 53.3977 11.155L48.5851 6.34232C47.6416 5.39886 46.1121 5.39886 45.1686 6.34232L43.3269 8.18405C42.5896 8.92137 41.4635 9.10059 40.5321 8.63205C39.5094 8.11758 38.4444 7.67476 37.3437 7.31031C36.3556 6.98312 35.6888 6.05961 35.6888 5.01878V2.41581C35.6888 1.08157 34.6072 0 33.273 0H26.4669C25.1327 0 24.0511 1.08157 24.0511 2.41581V5.0189C24.0511 6.05973 23.3842 6.98324 22.3961 7.31043C21.2955 7.67488 20.2305 8.1177 19.2078 8.63217C18.2763 9.10071 17.1503 8.92137 16.413 8.18417L14.5712 6.34244C13.6278 5.39898 12.0982 5.39898 11.1548 6.34244L6.34236 11.1551C5.3989 12.0985 5.3989 13.6281 6.34236 14.5716L8.18409 16.4133C8.92129 17.1506 9.10063 18.2767 8.63208 19.2081C8.11762 20.2308 7.6748 21.2958 7.31034 22.3965C7.07908 23.0947 6.55007 23.6325 5.89232 23.8879C5.61935 23.9939 5.44433 24.1715 5.13902 24.1715H2.53593C1.20169 24.1715 0.120117 25.2531 0.120117 26.5873V33.153C0.120117 34.4872 1.20169 35.5688 2.53593 35.5688H5.13902C6.17985 35.5688 7.10336 36.3559 7.43055 37.3439C7.795 38.4446 8.23782 39.5095 8.75228 40.5323C9.22083 41.4637 9.04149 42.5898 8.30429 43.3271L6.58276 45.1688C5.6393 46.1123 5.6393 47.6418 6.58276 48.5853L11.155 53.1575C12.0985 54.101 13.628 54.101 14.5715 53.1575L16.4132 51.3158C17.1504 50.5785 18.2766 50.3993 19.208 50.8678C20.2307 51.3823 21.5361 51.9453 22.6368 52.3097C23.6248 52.6369 24.2917 53.5604 24.2917 54.6013V57.2044C24.2917 58.5386 25.3733 59.6202 26.7075 59.6202H33.153C34.4872 59.6202 35.5688 58.5386 35.5688 57.2044V54.6013C35.5688 54.296 35.7463 54.1209 35.8524 53.848C36.1078 53.1902 36.6457 52.6612 37.3438 52.4299C38.4445 52.0655 39.5095 51.6227 40.5322 51.1082C41.4636 50.6397 42.5897 50.819 43.327 51.5562L45.1687 53.3979C46.1122 54.3414 47.6418 54.3414 48.5852 53.3979L53.3978 48.5853C54.3413 47.6418 54.3413 46.1123 53.3978 45.1688L51.5561 43.3271C50.8189 42.5898 50.6396 41.4637 51.1081 40.5323C51.6226 39.5096 52.0654 38.4446 52.4299 37.3439C52.7571 36.3559 53.6806 35.689 54.7214 35.689H57.3245C58.6586 35.689 59.7402 34.6074 59.7402 33.2732V33.2732Z" fill="#B6C4CF"/>
<path d="M35.8526 53.8479C35.7468 54.1208 35.6891 54.4165 35.6891 54.7218V57.3241C35.6891 58.6584 34.6073 59.7402 33.273 59.7402H26.4672C25.133 59.7402 24.0512 58.6584 24.0512 57.3241V54.7218C24.0512 53.6808 23.384 52.7565 22.396 52.4295C21.2961 52.0653 20.2312 51.623 19.2082 51.1085C18.2767 50.6397 17.1504 50.8188 16.4135 51.5557L14.5721 53.3972C13.6285 54.3407 12.0983 54.3407 11.1547 53.3972L6.34184 48.5855C5.39946 47.6419 5.39946 46.1117 6.34184 45.1681L8.18453 43.3267C8.92137 42.5898 9.10047 41.4635 8.63169 40.532C8.11722 39.5091 7.67488 38.4441 7.31067 37.3442C6.98372 36.3562 6.05937 35.689 5.01842 35.689H2.41605C1.08182 35.689 0 34.6072 0 33.273V26.4672C0 25.1329 1.08182 24.0511 2.41605 24.0511H5.01842C5.32373 24.0511 5.61943 23.9934 5.89229 23.8876C5.88988 24.0379 5.88868 24.1893 5.88868 24.3408C5.88868 40.6389 19.1013 53.8515 35.3994 53.8515C35.5509 53.8515 35.7023 53.8503 35.8526 53.8479V53.8479Z" fill="#9FACBA"/>
<path d="M29.8702 49.7034C40.8238 49.7034 49.7034 40.8237 49.7034 29.8701C49.7034 18.9165 40.8238 10.0368 29.8702 10.0368C18.9165 10.0368 10.0369 18.9165 10.0369 29.8701C10.0369 40.8237 18.9165 49.7034 29.8702 49.7034Z" fill="#9FACBA"/>
<path d="M29.8699 45.4963C38.5 45.4963 45.4961 38.5002 45.4961 29.8701C45.4961 21.24 38.5 14.2439 29.8699 14.2439C21.2398 14.2439 14.2437 21.24 14.2437 29.8701C14.2437 38.5002 21.2398 45.4963 29.8699 45.4963Z" fill="#F8F7F7"/>
</svg>
