<svg width="51" height="45" viewBox="0 0 51 45" fill="none" xmlns="http://www.w3.org/2000/svg">
<path d="M7.99988 33.304L17.4999 36.304L25.4999 28.304L35.4999 35.304L45.9999 33.304L41.4999 18.804L25.4999 23.804L16.4999 18.804L6.99988 20.304L7.99988 33.304Z" fill="#F1A501"/>
<path d="M13.4586 38.5351C20.6201 38.5351 25.806 33.2257 25.806 26.8874V26.8051C25.806 20.4667 20.6613 15.2397 13.5409 15.2397C6.37947 15.2397 1.19358 20.5491 1.19358 26.8874V26.9697C1.19358 33.308 6.33832 38.5351 13.4586 38.5351ZM13.5409 31.9086C10.7834 31.9086 8.80779 29.6038 8.80779 26.8874V26.8051C8.80779 24.1298 10.6187 21.8661 13.4586 21.8661C16.2162 21.8661 18.1918 24.1709 18.1918 26.8874V26.9697C18.1918 29.6449 16.3808 31.9086 13.5409 31.9086Z" fill="white"/>
<path d="M36.4586 38.5351C43.6201 38.5351 48.806 33.2257 48.806 26.8874V26.8051C48.806 20.4667 43.6613 15.2397 36.5409 15.2397C29.3795 15.2397 24.1936 20.5491 24.1936 26.8874V26.9697C24.1936 33.308 29.3383 38.5351 36.4586 38.5351ZM36.5409 31.9086C33.7834 31.9086 31.8078 29.6038 31.8078 26.8874V26.8051C31.8078 24.1298 33.6187 21.8661 36.4586 21.8661C39.2162 21.8661 41.1918 24.1709 41.1918 26.8874V26.9697C41.1918 29.6449 39.3808 31.9086 36.5409 31.9086Z" fill="white"/>
</svg>
