<svg width="110" height="156" viewBox="0 0 110 156" fill="none" xmlns="http://www.w3.org/2000/svg">
<path d="M24.7874 120.795C24.7874 130.736 32.8462 138.795 42.7874 138.795L79.1996 138.795C81.961 138.795 84.1996 136.556 84.1996 133.795L84.1996 29.2822C84.1996 23.7594 79.7225 19.2822 74.1996 19.2822L29.7874 19.2822C27.0259 19.2822 24.7873 21.5208 24.7873 24.2822L24.7874 120.795Z" fill="#FFF1DA"/>
<path d="M59.4537 103.176C58.4047 102.425 57.2705 102.066 56.1217 102.12C53.1497 102.191 50.7082 104.587 50.6686 107.472C50.6291 110.357 53.0066 112.636 55.9785 112.566C57.1266 112.565 58.2712 112.152 59.3416 111.353C59.8474 110.952 60.1816 110.075 60.194 109.118L60.2454 105.37C60.2599 104.412 59.9491 103.551 59.4537 103.176Z" fill="#D5D6DB"/>
<path d="M65.4713 58.7962C64.7106 58.2522 63.888 57.9919 63.0549 58.0311C60.9005 58.0824 59.1296 59.8192 59.1009 61.9092C59.0723 63.9992 60.797 65.6528 62.9512 65.6015C63.7838 65.6002 64.6138 65.3003 65.3901 64.7209C65.7566 64.4303 65.9986 63.7952 66.0077 63.1009L66.0448 60.3874C66.0555 59.693 65.8305 59.0686 65.4713 58.7962Z" fill="#D5D6DB"/>
<path d="M56.308 49.2952C56.1697 49.0717 55.9866 48.9509 55.7946 48.9559L50.7338 49.0769C50.3108 49.0858 49.9591 49.6928 49.9482 50.4333C49.9456 50.6029 49.9616 50.7708 49.9952 50.9274L55.1069 74.9616L71.9821 74.558L56.308 49.2952Z" fill="#029BC5"/>
<path d="M95.0699 96.2282L49.3042 96.8037L25.0278 87.8899L13.8748 79.2859L13.9351 74.0847L89.8073 74.4879C92.0711 74.491 94.2782 75.5351 96.2051 77.5149C97.0464 78.3907 97.8182 79.4501 98.503 80.6678C99.1135 81.7366 99.6304 82.956 100.038 84.2897C100.49 85.7882 101.711 87.4505 101.713 89.29C101.715 89.2896 100.823 96.5886 95.0699 96.2282V96.2282Z" fill="#E1E6E9"/>
<path d="M51.4423 91.7339L23.1169 120.167C22.7411 120.595 22.625 121.462 22.8573 122.103C22.9998 122.497 23.2492 122.731 23.52 122.726L28.5704 122.626C29.5419 122.607 30.5077 122.24 31.4083 121.549L79.1662 90.1214L51.4423 91.7339Z" fill="#029BC5"/>
<path d="M15.9946 44.3942C15.8076 43.9249 15.4989 43.6511 15.166 43.6589L10.9866 43.7564C10.4173 43.7693 9.94463 44.5869 9.93069 45.5827C9.92812 45.7721 9.94242 45.9599 9.97343 46.1392L14.1911 70.6292L26.4355 70.5639L15.9946 44.3942Z" fill="#029BC5"/>
<path d="M16.2511 76.701L7.80701 83.9271C7.68434 84.0293 7.62906 84.2834 7.68357 84.4943C7.7229 84.6463 7.81098 84.7403 7.90776 84.7334L11.8079 84.6606C11.8382 84.6601 11.8686 84.6497 11.8971 84.63L23.4788 76.5724L16.2511 76.701Z" fill="#029BC5"/>
<path d="M97.7934 80.5392C97.0888 79.2835 96.2935 78.1934 95.4263 77.2936C93.9306 78.5707 92.6381 80.4995 91.6775 82.8876C91.5065 83.3953 91.5981 84.0344 91.8823 84.3152C91.9707 84.4023 92.0711 84.4476 92.1742 84.4464L99.3715 84.2797C98.9531 82.9006 98.4217 81.6412 97.7934 80.5392Z" fill="#029BC5"/>
<path d="M82.803 78.608L87.4911 78.535L87.3148 93.4839L82.6266 93.5569L82.803 78.608Z" fill="#D5D6DB"/>
<path d="M79.3739 80.2379C78.8085 80.2483 78.3395 81.0557 78.3267 82.0416L78.306 83.6387C78.3123 84.6234 78.776 85.3862 79.3418 85.3425C79.8805 85.3006 80.3224 84.5398 80.353 83.6011L80.3737 82.0039C80.3865 81.0189 79.9391 80.2283 79.3739 80.2379V80.2379Z" fill="#3A556A"/>
<path d="M75.1798 80.2379C74.6144 80.2483 74.1454 81.0557 74.1326 82.0416L74.1119 83.6387C74.1182 84.6234 74.5819 85.3862 75.1478 85.3425C75.6864 85.3006 76.1283 84.5398 76.1589 83.6011L76.1796 82.0039C76.1921 81.0189 75.7448 80.2283 75.1798 80.2379V80.2379Z" fill="#3A556A"/>
<path d="M70.9846 80.2379C70.4194 80.2496 69.9513 81.0565 69.9385 82.0415L69.9178 83.6386C69.9241 84.6233 70.3879 85.3861 70.9537 85.3424C71.4923 85.3005 71.9342 84.5398 71.9648 83.6011L71.9855 82.004C71.9983 81.0181 71.5502 80.2276 70.9846 80.2379V80.2379Z" fill="#3A556A"/>
<path d="M66.7907 80.2379C66.2255 80.2496 65.7574 81.0565 65.7447 82.0416L65.7239 83.6387C65.7303 84.6234 66.194 85.3862 66.7598 85.3425C67.2984 85.3006 67.7404 84.5398 67.7709 83.6011L67.7916 82.0039C67.8042 81.0181 67.3561 80.2275 66.7907 80.2379V80.2379Z" fill="#3A556A"/>
<path d="M62.5969 80.2388C62.0314 80.2504 61.5631 81.0576 61.5504 82.0431L61.5297 83.641C61.517 84.6261 61.9648 85.4163 62.5301 85.406C63.0953 85.3957 63.5639 84.5888 63.5766 83.6037L63.5973 82.0058C63.6107 81.0208 63.1634 80.2297 62.5981 80.2388C62.5977 80.2388 62.5974 80.2388 62.5969 80.2388Z" fill="#3A556A"/>
<path d="M58.4031 80.2388C57.8376 80.2504 57.3693 81.0576 57.3565 82.0431L57.3359 83.641C57.3231 84.6261 57.771 85.4163 58.3362 85.406C58.9015 85.3957 59.37 84.5888 59.3828 83.6037L59.4034 82.0058C59.4169 81.0208 58.9695 80.2297 58.4043 80.2388C58.4038 80.2388 58.4033 80.2388 58.4031 80.2388Z" fill="#3A556A"/>
<path d="M54.209 80.2387C53.6435 80.2502 53.1752 81.0575 53.1624 82.0429L53.1418 83.6408C53.1297 84.6258 53.5784 85.4147 54.1434 85.4032C54.7074 85.3917 55.175 84.5865 55.1884 83.6036L55.2091 82.0057C55.222 81.0202 54.7744 80.2292 54.209 80.2387Z" fill="#3A556A"/>
<path d="M50.0146 80.2387C49.4492 80.2502 48.9809 81.0575 48.9681 82.043L48.9474 83.6409C48.9354 84.6259 49.384 85.4148 49.949 85.4033C50.513 85.3917 50.9806 84.5865 50.994 83.6036L51.0147 82.0057C51.0277 81.0202 50.5801 80.2292 50.0146 80.2387Z" fill="#3A556A"/>
<path d="M45.821 80.2388C45.2556 80.2504 44.7873 81.0576 44.7745 82.0431L44.7538 83.6409C44.7418 84.6259 45.1904 85.4149 45.7554 85.4033C46.3195 85.3918 46.787 84.5866 46.8004 83.6037L46.8211 82.0058C46.8339 81.0204 46.3862 80.2294 45.821 80.2388Z" fill="#3A556A"/>
<path d="M41.6257 80.2387C41.0605 80.249 40.592 81.0559 40.5792 82.0409L40.5792 82.043L40.5585 83.6409C40.5465 84.6259 40.9951 85.4148 41.5601 85.4033C42.1241 85.3917 42.5917 84.5865 42.6051 83.6036L42.6258 82.0057C42.6388 81.0202 42.1912 80.2292 41.6257 80.2387Z" fill="#3A556A"/>
<path d="M37.4329 80.2387C36.8676 80.249 36.3991 81.0558 36.3864 82.0409L36.3863 82.043L36.3657 83.6408C36.3536 84.6258 36.8022 85.4148 37.3673 85.4032C37.9313 85.3917 38.3989 84.5866 38.4123 83.6036L38.433 82.0057C38.4457 81.0203 37.9981 80.2293 37.4329 80.2387Z" fill="#3A556A"/>
</svg>
